<svg width="749" height="208" fill="none" xmlns="http://www.w3.org/2000/svg"><path d="M126.522 162.957c-12.007 0-22.175-2.251-30.505-6.754-8.33-4.503-14.67-10.731-19.023-18.686-4.352-7.954-6.529-17.109-6.529-27.465 0-9.906 2.552-18.836 7.655-26.79 5.103-7.955 11.931-14.296 20.486-19.024 8.555-4.727 18.086-7.091 28.592-7.091 14.108 0 25.702 4.09 34.782 12.27 9.08 8.179 14.971 19.998 17.672 35.457l-76.543 24.314-6.98-17.11 55.382-18.686-6.528 2.927c-1.201-3.902-3.34-7.317-6.417-10.243-3.076-2.927-7.691-4.39-13.845-4.39-4.653 0-8.742 1.088-12.269 3.264-3.527 2.176-6.229 5.253-8.105 9.23-1.876 3.978-2.814 8.668-2.814 14.071 0 6.153 1.126 11.294 3.377 15.421 2.251 4.127 5.328 7.242 9.23 9.343s8.255 3.152 13.058 3.152a28.52 28.52 0 0 0 10.018-1.801c3.227-1.201 6.416-2.777 9.568-4.728l13.958 23.413c-5.253 3.002-10.919 5.403-16.998 7.204-6.078 1.801-11.819 2.702-17.222 2.702zM243.363 18.77l-31.518 31.518v11.136h-15.308v24.539h15.308v77.669h31.518V85.963h23.864V61.424h-23.864V18.77zm79.921 143.511c-8.105 0-15.647-1.425-22.626-4.277-6.979-2.852-12.869-6.829-17.672-11.932l13.057-17.335c4.803 4.353 9.268 7.467 13.395 9.343 4.128 1.876 7.842 2.814 11.144 2.814 2.552 0 4.84-.262 6.867-.788 2.026-.525 3.639-1.35 4.84-2.476 1.2-1.126 1.801-2.589 1.801-4.39 0-2.551-1.013-4.578-3.039-6.078-2.027-1.501-4.616-2.739-7.767-3.715a637.732 637.732 0 0 0-10.131-3.039c-9.005-2.852-15.496-7.017-19.474-12.495-3.977-5.478-5.966-11.444-5.966-17.897 0-4.953 1.314-9.944 3.94-14.972 2.627-5.027 6.829-9.23 12.607-12.607 5.779-3.377 13.245-5.065 22.401-5.065 8.254 0 15.233.825 20.936 2.476 5.704 1.651 11.107 4.353 16.21 8.105l-11.932 18.46c-2.852-2.25-6.041-4.164-9.568-5.74-3.527-1.576-6.791-2.44-9.793-2.59-2.702-.15-4.99.15-6.866.901-1.877.75-3.34 1.726-4.39 2.927-1.051 1.2-1.576 2.476-1.576 3.827-.15 2.852.938 5.103 3.264 6.754 2.326 1.65 5.29 2.927 8.893 3.827 3.602.9 7.129 1.951 10.581 3.152 4.802 1.501 8.93 3.527 12.382 6.078 3.451 2.552 6.116 5.591 7.992 9.118 1.876 3.527 2.814 7.767 2.814 12.72 0 6.003-1.539 11.669-4.615 16.997-3.077 5.328-7.73 9.643-13.958 12.945-6.229 3.302-14.146 4.952-23.751 4.952zm117.066.676c-12.007 0-22.175-2.251-30.505-6.754-8.329-4.503-14.671-10.731-19.023-18.686-4.353-7.954-6.529-17.109-6.529-27.465 0-9.906 2.552-18.836 7.655-26.79 5.102-7.955 11.931-14.296 20.486-19.024 8.555-4.727 18.085-7.091 28.591-7.091 14.108 0 25.703 4.09 34.783 12.27 9.08 8.179 14.971 19.998 17.672 35.457l-76.543 24.314-6.979-17.11 55.381-18.686-6.528 2.927c-1.201-3.902-3.34-7.317-6.417-10.243-3.076-2.927-7.691-4.39-13.845-4.39-4.653 0-8.742 1.088-12.269 3.264-3.527 2.176-6.229 5.253-8.105 9.23-1.876 3.978-2.814 8.668-2.814 14.071 0 6.153 1.126 11.294 3.377 15.421 2.251 4.127 5.328 7.242 9.23 9.343s8.255 3.152 13.057 3.152c3.452 0 6.792-.601 10.019-1.801 3.226-1.201 6.416-2.777 9.568-4.728l13.957 23.413c-5.253 3.002-10.918 5.403-16.997 7.204-6.078 1.801-11.819 2.702-17.222 2.702zm124.496 0c-12.007 0-22.175-2.251-30.505-6.754-8.33-4.503-14.671-10.731-19.023-18.686-4.353-7.954-6.529-17.109-6.529-27.465 0-9.906 2.551-18.836 7.654-26.79 5.103-7.955 11.932-14.296 20.487-19.024 8.555-4.727 18.085-7.091 28.591-7.091 14.108 0 25.702 4.09 34.782 12.27 9.081 8.179 14.971 19.998 17.673 35.457l-76.543 24.314-6.979-17.11 55.381-18.686-6.529 2.927c-1.2-3.902-3.339-7.317-6.416-10.243-3.077-2.927-7.692-4.39-13.845-4.39-4.653 0-8.743 1.088-12.27 3.264-3.527 2.176-6.228 5.253-8.104 9.23-1.876 3.978-2.814 8.668-2.814 14.071 0 6.153 1.125 11.294 3.377 15.421 2.251 4.127 5.328 7.242 9.23 9.343s8.254 3.152 13.057 3.152c3.452 0 6.792-.601 10.018-1.801 3.227-1.201 6.416-2.777 9.568-4.728l13.958 23.413c-5.253 3.002-10.919 5.403-16.997 7.204-6.078 1.801-11.819 2.702-17.222 2.702zM749 0l-31.293 31.293v37.56c-3.902-4.052-8.742-7.053-14.52-9.004-5.779-1.951-11.82-2.927-18.123-2.927-9.906 0-18.761 2.026-26.565 6.079-7.805 4.052-13.958 9.98-18.461 17.784-4.502 7.805-6.753 17.26-6.753 28.366 0 11.106 2.063 20.712 6.19 28.817 4.128 8.105 9.794 14.296 16.998 18.573 7.204 4.277 15.383 6.416 24.539 6.416 8.254 0 15.534-1.464 21.837-4.39 5.305-2.463 10.179-5.384 14.633-8.75v12.971H749V0zm-57.633 81.686c4.203 0 8.068.637 11.595 1.913 3.526 1.276 6.528 3.077 9.005 5.404 2.476 2.326 4.315 5.14 5.515 8.442v24.088c-1.801 3.302-3.94 6.041-6.416 8.218-2.477 2.176-5.328 3.826-8.555 4.952-3.226 1.126-6.941 1.689-11.144 1.689-4.652 0-8.967-1.201-12.944-3.602-3.977-2.402-7.167-5.704-9.569-9.906-2.401-4.202-3.602-8.93-3.602-14.183s1.201-9.905 3.602-13.958c2.402-4.052 5.592-7.241 9.569-9.567 3.977-2.327 8.292-3.49 12.944-3.49zM52.793 57.822l-38.61 38.61v62.023c0 6.903-1.238 12.757-3.714 17.559C7.992 180.817 4.503 184.87 0 188.172l18.236 19.585c9.905-4.503 16.96-10.619 21.162-18.348 4.202-7.729 6.303-17.447 6.303-29.154v-68.72a68.177 68.177 0 0 1 7.767-33.713h-.675z" fill="#353536"/><path d="M33.068 18.881c-7.435 0-13.87 419-16.95 10.269H30.25L14.184 45.216v12.95h20.4c10.422 0 18.884-8.228 18.884-18.362V18.881h-20.4z" fill="#0ABF52"/></svg>