<svg xmlns="http://www.w3.org/2000/svg" viewBox="0 0 132.3 39.2" xml:space="preserve"><path d="M127.4 39.2H4.9C2.2 39.2 0 37 0 34.3V4.9C0 2.2 2.2 0 4.9 0h122.5c2.7 0 4.9 2.2 4.9 4.9v29.4c0 2.7-2.2 4.9-4.9 4.9z"/><path fill="#A6A6A6" d="M127.4.8c2.3 0 4.1 1.8 4.1 4.1v29.4c0 2.3-1.8 4.1-4.1 4.1H4.9c-2.3 0-4.1-1.8-4.1-4.1V4.9C.8 2.6 2.6.8 4.9.8h122.5m0-.8H4.9C2.2 0 0 2.2 0 4.9v29.4c0 2.7 2.2 4.9 4.9 4.9h122.5c2.7 0 4.9-2.2 4.9-4.9V4.9c0-2.7-2.2-4.9-4.9-4.9z"/><g fill="#FFF" stroke="#FFF" stroke-width=".2" stroke-miterlimit="10"><path d="M46.5 10c0 .8-.2 1.5-.7 2-.6.6-1.3.9-2.2.9-.8 0-1.6-.3-2.2-.9-.6-.6-.9-1.3-.9-2.2 0-.9.3-1.6.9-2.2.6-.6 1.3-.9 2.2-.9.4 0 .8.1 1.2.2.4.2.7.4.9.7l-.5.5c-.4-.5-.9-.7-1.6-.7-.6 0-1.2.2-1.6.7-.5.4-.7 1-.7 1.7s.2 1.3.7 1.7c.5.4 1 .7 1.6.7.7 0 1.2-.2 1.6-.7.3-.3.4-.7.5-1.2h-2.1v-.7h2.8c.1.1.1.3.1.4zM51 7.6h-2.7v1.9h2.4v.7h-2.4V12H51v.7h-3.4V6.9H51v.7zM54.2 12.7h-.8V7.6h-1.6v-.7h4v.7h-1.6v5.1zM58.7 12.7V6.9h.8v5.9h-.8zM62.8 12.7H62V7.6h-1.6v-.7h4v.7h-1.6v5.1zM72.1 12c-.6.6-1.3.9-2.2.9-.9 0-1.6-.3-2.2-.9-.6-.6-.9-1.3-.9-2.2s.3-1.6.9-2.2c.7-.6 1.4-.9 2.3-.9.9 0 1.6.3 2.2.9.5.6.8 1.3.8 2.2 0 .9-.3 1.6-.9 2.2zm-3.7-.5c.4.4 1 .7 1.6.7.6 0 1.2-.2 1.6-.7.4-.4.7-1 .7-1.7s-.3-1.2-.7-1.7c-.4-.4-1-.7-1.6-.7-.6 0-1.2.2-1.6.7-.4.4-.7 1-.7 1.7s.2 1.2.7 1.7zM74.1 12.7V6.9h.9l2.9 4.6V6.9h.8v5.9h-.8l-3-4.8V12.8h-.8z"/></g><path fill="#FFF" d="M66.8 21.3c-2.3 0-4.2 1.8-4.2 4.2 0 2.4 1.9 4.2 4.2 4.2 2.3 0 4.2-1.8 4.2-4.2 0-2.4-1.9-4.2-4.2-4.2zm0 6.7c-1.3 0-2.4-1-2.4-2.5s1.1-2.5 2.4-2.5 2.4 1 2.4 2.5C69.1 27 68 28 66.8 28zm-9.2-6.7c-2.3 0-4.2 1.8-4.2 4.2 0 2.4 1.9 4.2 4.2 4.2 2.3 0 4.2-1.8 4.2-4.2 0-2.4-1.8-4.2-4.2-4.2zm0 6.7c-1.3 0-2.4-1-2.4-2.5s1.1-2.5 2.4-2.5c1.3 0 2.4 1 2.4 2.5S58.9 28 57.6 28zm-10.8-5.4v1.8H51c-.1 1-.5 1.7-1 2.2-.6.6-1.6 1.3-3.3 1.3-2.6 0-4.6-2.1-4.6-4.7s2-4.7 4.6-4.7c1.4 0 2.4.6 3.2 1.3l1.2-1.2c-1.1-1-2.5-1.8-4.4-1.8-3.6 0-6.6 2.9-6.6 6.5s3 6.5 6.6 6.5c1.9 0 3.4-.6 4.5-1.8 1.2-1.2 1.5-2.8 1.5-4.1 0-.4 0-.8-.1-1.1h-5.8zM91.2 24c-.3-.9-1.4-2.7-3.6-2.7-2.1 0-3.9 1.7-3.9 4.2 0 2.3 1.8 4.2 4.1 4.2 1.9 0 3-1.2 3.5-1.8l-1.4-.9c-.5.7-1.1 1.2-2.1 1.2-.9 0-1.6-.4-2-1.3l5.6-2.3-.2-.6zm-5.7 1.4c0-1.6 1.2-2.4 2.2-2.4.7 0 1.3.4 1.5.9l-3.7 1.5zm-4.5 4h1.8V17.1H81v12.3zm-3-7.2c-.5-.5-1.3-.9-2.3-.9-2.1 0-4 1.8-4 4.2 0 2.3 1.9 4.2 4 4.2 1 0 1.8-.4 2.2-.9h.1v.6c0 1.6-.9 2.4-2.2 2.4-1.1 0-1.8-.8-2.1-1.5l-1.6.7c.5 1.1 1.7 2.5 3.7 2.5 2.1 0 4-1.3 4-4.3v-7.5H78v.5zM75.9 28c-1.3 0-2.3-1.1-2.3-2.5 0-1.5 1.1-2.5 2.3-2.5 1.2 0 2.2 1.1 2.2 2.5 0 1.5-1 2.5-2.2 2.5zm23.9-10.9h-4.4v12.3h1.8v-4.6h2.6c2 0 4-1.5 4-3.8s-2-3.9-4-3.9zm0 6h-2.6v-4.2h2.6c1.4 0 2.1 1.1 2.1 2.1.1.9-.7 2.1-2.1 2.1zm11.3-1.8c-1.3 0-2.7.6-3.3 1.9l1.6.7c.3-.7 1-.9 1.7-.9.9 0 1.9.6 1.9 1.6v.1c-.3-.2-1-.5-1.9-.5-1.7 0-3.5 1-3.5 2.8 0 1.6 1.4 2.7 3 2.7 1.2 0 1.9-.6 2.3-1.2h.1v.9h1.8v-4.7c0-2.2-1.6-3.4-3.7-3.4zm-.2 6.7c-.6 0-1.4-.3-1.4-1 0-.9 1-1.3 1.9-1.3.8 0 1.2.2 1.7.4-.2 1.1-1.1 1.9-2.2 1.9zm10.4-6.4-2.1 5.3h-.1l-2.2-5.3h-2l3.3 7.4-1.9 4.1h1.9l5-11.6h-1.9zm-16.5 7.8h1.8V17.1h-1.8v12.3z"/><linearGradient id="a" gradientUnits="userSpaceOnUse" x1="21.364" y1="34.017" x2="4.917" y2="17.57" gradientTransform="matrix(1 0 0 -1 0 42.552)"><stop offset="0" style="stop-color:#00a0ff"/><stop offset=".007" style="stop-color:#00a1ff"/><stop offset=".26" style="stop-color:#00beff"/><stop offset=".512" style="stop-color:#00d2ff"/><stop offset=".76" style="stop-color:#00dfff"/><stop offset="1" style="stop-color:#00e3ff"/></linearGradient><path fill="url(#a)" d="M10.2 7.4c-.3.3-.4.8-.4 1.4v21.7c0 .6.2 1.1.5 1.4l.1.1 12.1-12.1v-.2L10.2 7.4z"/><linearGradient id="b" gradientUnits="userSpaceOnUse" x1="33.158" y1="22.951" x2="9.445" y2="22.951" gradientTransform="matrix(1 0 0 -1 0 42.552)"><stop offset="0" style="stop-color:#ffe000"/><stop offset=".409" style="stop-color:#ffbd00"/><stop offset=".775" style="stop-color:orange"/><stop offset="1" style="stop-color:#ff9c00"/></linearGradient><path fill="url(#b)" d="m26.5 23.8-4-4v-.2l4-4 .1.1 4.8 2.7c1.4.8 1.4 2.1 0 2.8l-4.9 2.6z"/><linearGradient id="c" gradientUnits="userSpaceOnUse" x1="24.33" y1="20.702" x2="2.027" y2="-1.601" gradientTransform="matrix(1 0 0 -1 0 42.552)"><stop offset="0" style="stop-color:#ff3a44"/><stop offset="1" style="stop-color:#c31162"/></linearGradient><path fill="url(#c)" d="m26.6 23.7-4.1-4.1-12.3 12.2c.5.5 1.2.5 2 .1l14.4-8.2"/><linearGradient id="d" gradientUnits="userSpaceOnUse" x1="7.151" y1="42.379" x2="17.111" y2="32.42" gradientTransform="matrix(1 0 0 -1 0 42.552)"><stop offset="0" style="stop-color:#32a071"/><stop offset=".069" style="stop-color:#2da771"/><stop offset=".476" style="stop-color:#15cf74"/><stop offset=".801" style="stop-color:#06e775"/><stop offset="1" style="stop-color:#00f076"/></linearGradient><path fill="url(#d)" d="M26.6 15.5 12.3 7.3c-.8-.5-1.6-.4-2 .1l12.2 12.2 4.1-4.1z"/><path opacity=".2" d="m26.5 23.6-14.2 8.1c-.8.5-1.5.4-2 0l-.1.1.1.1c.5.4 1.2.4 2 0l14.2-8.3z"/><path opacity=".12" d="M10.2 31.7c-.3-.3-.5-.8-.5-1.4v.1c0 .6.2 1.1.5 1.4v-.1zM31.4 20.9l-4.9 2.8.1.1 4.8-2.7c.7-.4 1-.9 1-1.4-.1.4-.4.8-1 1.2z"/><path opacity=".25" fill="#FFF" d="m12.3 7.5 19.1 10.9c.6.4 1 .8 1 1.3 0-.5-.3-1-1-1.4l-19.1-11c-1.4-.8-2.5-.1-2.5 1.4v.1c0-1.5 1.1-2.1 2.5-1.3z"/></svg>